<svg width="266" height="194" viewBox="0 0 266 194" fill="none" xmlns="http://www.w3.org/2000/svg">
<g clip-path="url(#clip0)">
<path fill-rule="evenodd" clip-rule="evenodd" d="M246.222 96.7767H261.906C262.03 96.635 262.158 96.4934 262.29 96.3521C268.936 89.2255 266.408 83.3481 256.667 83.3197C246.926 83.2629 242.893 76.3066 247.749 67.8454C252.577 59.3843 248.772 54.2451 239.258 56.4598C229.772 58.646 224.234 52.7971 226.989 43.4557C229.744 34.1144 224.831 29.9974 216.112 34.3131C207.393 38.6289 200.663 34.2279 201.174 24.4891C201.685 14.7502 195.977 11.8825 188.479 18.129C180.981 24.3471 173.427 21.593 171.695 12.0245C169.962 2.42762 163.743 0.979564 157.864 8.75929C152.014 16.539 144.005 15.602 140.114 6.68659C136.195 -2.22886 129.805 -2.22886 125.914 6.68659C121.995 15.602 114.015 16.539 108.164 8.75929C102.314 0.979564 96.0944 2.45601 94.3336 12.0245C92.6013 21.6214 85.0469 24.3755 77.5494 18.129C70.0518 11.9109 64.3434 14.7786 64.8546 24.4891C65.3658 34.2279 58.6635 38.6289 49.9163 34.3131C41.1976 29.9974 36.2844 34.086 39.0392 43.4557C41.794 52.7971 36.256 58.646 26.7705 56.4598C17.2849 54.2735 13.451 59.3843 18.2789 67.8454C23.1069 76.3066 19.0741 83.2629 9.33299 83.3197C-0.408151 83.3765 -2.93574 89.2255 3.70982 96.3521C3.84158 96.4934 3.96983 96.635 4.09457 96.7767H19.8064C33.7309 63.3913 62.0008 37.4789 96.9156 26.7381L98.0138 27.0744C99.0238 27.3835 99.9507 27.9173 100.725 28.6355L119.011 45.5965C125.97 52.0511 136.745 51.9932 143.634 45.4641L161.177 28.8375C162.071 27.9903 163.173 27.3939 164.371 27.1086L167.706 26.3146C203.267 36.7859 232.111 62.944 246.222 96.7767ZM137.987 15.3702C139.092 15.3702 139.987 16.2656 139.987 17.3702V34.7403C139.987 35.8449 139.092 36.7403 137.987 36.7403C136.883 36.7403 135.987 35.8449 135.987 34.7403V17.3702C135.987 16.2656 136.883 15.3702 137.987 15.3702ZM117.608 29.7774C117.608 28.6728 116.713 27.7774 115.608 27.7774C114.504 27.7774 113.608 28.6728 113.608 29.7774V34.7403C113.608 35.8449 114.504 36.7403 115.608 36.7403C116.713 36.7403 117.608 35.8449 117.608 34.7403V29.7774ZM145.447 27.7774C146.552 27.7774 147.447 28.6728 147.447 29.7774V34.7403C147.447 35.8449 146.552 36.7403 145.447 36.7403C144.342 36.7403 143.447 35.8449 143.447 34.7403V29.7774C143.447 28.6728 144.342 27.7774 145.447 27.7774ZM132.528 24.8145C132.528 23.7099 131.632 22.8145 130.528 22.8145C129.423 22.8145 128.528 23.7099 128.528 24.8145V34.7403C128.528 35.8449 129.423 36.7403 130.528 36.7403C131.632 36.7403 132.528 35.8449 132.528 34.7403V24.8145ZM123.068 20.3331C124.172 20.3331 125.068 21.2285 125.068 22.3331V34.7403C125.068 35.8449 124.172 36.7403 123.068 36.7403C121.963 36.7403 121.068 35.8449 121.068 34.7403V22.3331C121.068 21.2285 121.963 20.3331 123.068 20.3331Z" fill="white"/>
<path fill-rule="evenodd" clip-rule="evenodd" d="M192.433 96.7767C179.579 77.6832 157.738 65.0966 133.014 65.0966C108.28 65.0966 86.4412 77.6832 73.5912 96.7767H69.9385C83.1702 75.9187 106.498 62.0363 133.014 62.0363C159.535 62.0363 182.865 75.9147 196.096 96.7767H192.433Z" fill="white"/>
<path d="M107.802 157.235C107.333 157.235 106.911 157.071 106.536 156.743C106.208 156.368 106.043 155.946 106.043 155.477V109.829C106.043 109.313 106.208 108.891 106.536 108.563C106.864 108.188 107.286 108 107.802 108H127.144C133.334 108 138.164 109.407 141.634 112.22C145.151 115.034 146.909 118.996 146.909 124.107C146.909 127.389 146.135 130.179 144.588 132.477C143.087 134.775 141.001 136.557 138.328 137.823L147.823 154.985C147.964 155.266 148.034 155.524 148.034 155.758C148.034 156.134 147.894 156.485 147.612 156.813C147.331 157.095 146.979 157.235 146.557 157.235H136.64C135.28 157.235 134.319 156.602 133.756 155.336L126.019 140.073H119.267V155.477C119.267 155.993 119.079 156.415 118.704 156.743C118.376 157.071 117.954 157.235 117.438 157.235H107.802ZM127.074 129.734C129.09 129.734 130.614 129.242 131.646 128.257C132.724 127.225 133.264 125.819 133.264 124.037C133.264 122.255 132.724 120.825 131.646 119.746C130.614 118.668 129.09 118.128 127.074 118.128H119.267V129.734H127.074Z" fill="#FCCC00"/>
<path d="M156.708 157.235C156.239 157.235 155.817 157.071 155.442 156.743C155.113 156.368 154.949 155.946 154.949 155.477V109.758C154.949 109.243 155.113 108.821 155.442 108.492C155.817 108.164 156.239 108 156.708 108H166.766C167.282 108 167.704 108.164 168.032 108.492C168.36 108.821 168.524 109.243 168.524 109.758V155.477C168.524 155.946 168.36 156.368 168.032 156.743C167.704 157.071 167.282 157.235 166.766 157.235H156.708Z" fill="#FCCC00"/>
<path d="M179.855 157.235C179.387 157.235 178.965 157.071 178.589 156.743C178.261 156.368 178.097 155.946 178.097 155.477V109.829C178.097 109.313 178.261 108.891 178.589 108.563C178.918 108.188 179.34 108 179.855 108H198.354C205.294 108 210.686 109.665 214.531 112.994C218.376 116.276 220.393 121.012 220.58 127.202C220.627 128.562 220.651 130.367 220.651 132.618C220.651 134.869 220.627 136.65 220.58 137.963C220.111 150.811 212.82 157.235 198.706 157.235H179.855ZM198.354 146.685C201.308 146.685 203.489 145.982 204.895 144.575C206.302 143.168 207.052 140.917 207.146 137.823C207.24 136.463 207.287 134.704 207.287 132.547C207.287 130.39 207.24 128.655 207.146 127.343C207.052 124.341 206.232 122.138 204.684 120.731C203.184 119.277 200.956 118.55 198.002 118.55H191.32V146.685H198.354Z" fill="#FCCC00"/>
<path d="M230.41 157.235C229.941 157.235 229.519 157.071 229.144 156.743C228.815 156.368 228.651 155.946 228.651 155.477V109.829C228.651 109.313 228.815 108.891 229.144 108.563C229.472 108.188 229.894 108 230.41 108H263.609C264.124 108 264.546 108.188 264.875 108.563C265.25 108.891 265.437 109.313 265.437 109.829V116.792C265.437 117.308 265.25 117.73 264.875 118.058C264.546 118.386 264.124 118.55 263.609 118.55H241.382V127.483H262.061C262.577 127.483 262.999 127.671 263.327 128.046C263.702 128.374 263.89 128.796 263.89 129.312V135.713C263.89 136.228 263.702 136.674 263.327 137.049C262.999 137.377 262.577 137.541 262.061 137.541H241.382V146.685H264.171C264.687 146.685 265.109 146.873 265.437 147.248C265.812 147.576 266 147.998 266 148.514V155.477C266 155.993 265.812 156.415 265.437 156.743C265.109 157.071 264.687 157.235 264.171 157.235H230.41Z" fill="#FCCC00"/>
<path d="M1.73921 157.047C1.22539 157.047 0.781635 156.883 0.407946 156.556C0.0809693 156.229 -0.0825195 155.809 -0.0825195 155.295V109.822C-0.0825195 109.308 0.0809693 108.888 0.407946 108.561C0.781635 108.187 1.22539 108 1.73921 108H9.65673C10.8245 108 11.6653 108.514 12.1791 109.541L24.2306 131.122L36.3521 109.541C36.8659 108.514 37.7067 108 38.8745 108H46.792C47.3058 108 47.7262 108.187 48.0532 108.561C48.4269 108.888 48.6137 109.308 48.6137 109.822V155.295C48.6137 155.809 48.4269 156.229 48.0532 156.556C47.7262 156.883 47.3058 157.047 46.792 157.047H37.8936C37.4264 157.047 37.006 156.883 36.6324 156.556C36.3054 156.182 36.1419 155.762 36.1419 155.295V129.791L28.5747 143.664C27.9675 144.738 27.15 145.275 26.1224 145.275H22.3388C21.4046 145.275 20.5871 144.738 19.8864 143.664L12.3893 129.791V155.295C12.3893 155.809 12.2025 156.229 11.8288 156.556C11.5018 156.883 11.0814 157.047 10.5676 157.047H1.73921Z" fill="white"/>
<path d="M72.5103 157.047C72.0432 157.047 71.6228 156.883 71.2491 156.556C70.9221 156.182 70.7586 155.762 70.7586 155.295V140.371L54.5732 110.242C54.4331 110.009 54.363 109.752 54.363 109.471C54.363 109.098 54.5032 108.771 54.7834 108.49C55.1104 108.163 55.4607 108 55.8344 108H65.0832C65.7372 108 66.2743 108.163 66.6947 108.49C67.1151 108.817 67.4188 109.168 67.6056 109.541L77.3449 127.128L87.0841 109.541C87.2709 109.168 87.5746 108.817 87.995 108.49C88.4154 108.163 88.9525 108 89.6065 108H98.8553C99.229 108 99.5559 108.163 99.8362 108.49C100.163 108.771 100.327 109.098 100.327 109.471C100.327 109.752 100.257 110.009 100.116 110.242L83.9311 140.371V155.295C83.9311 155.809 83.7443 156.229 83.3706 156.556C83.0436 156.883 82.6232 157.047 82.1094 157.047H72.5103Z" fill="white"/>
<path d="M8.93918 194C6.17014 194 4.0131 193.277 2.46806 191.831C0.943078 190.384 0.130426 188.368 0.0300984 185.781C0.0100328 185.19 0 184.243 0 182.939C0 181.635 0.0100328 180.688 0.0300984 180.097C0.11036 177.571 0.933046 175.595 2.49815 174.169C4.06326 172.723 6.21027 172 8.93918 172C10.7852 172 12.3704 172.326 13.6947 172.978C15.0391 173.609 16.0524 174.404 16.7346 175.361C17.4169 176.298 17.778 177.225 17.8182 178.142C17.8182 178.325 17.758 178.478 17.6376 178.6C17.5172 178.722 17.3567 178.783 17.156 178.783H13.9957C13.795 178.783 13.6445 178.743 13.5442 178.661C13.4439 178.58 13.3536 178.447 13.2733 178.264C12.9924 177.51 12.5008 176.869 11.7985 176.339C11.0962 175.809 10.1431 175.544 8.93918 175.544C7.53459 175.544 6.43099 175.931 5.62837 176.706C4.84582 177.459 4.43447 178.641 4.39434 180.25C4.37428 180.841 4.36425 181.737 4.36425 182.939C4.36425 184.12 4.37428 185.017 4.39434 185.628C4.43447 187.278 4.85585 188.5 5.65847 189.294C6.46109 190.069 7.56469 190.456 8.96928 190.456C10.3939 190.456 11.5377 190.069 12.4005 189.294C13.2633 188.52 13.6947 187.359 13.6947 185.811V184.864H10.0227C9.82206 184.864 9.6515 184.793 9.51104 184.65C9.37059 184.507 9.30036 184.334 9.30036 184.131V182.45C9.30036 182.246 9.37059 182.073 9.51104 181.931C9.6515 181.788 9.82206 181.717 10.0227 181.717H17.2463C17.467 181.717 17.6476 181.788 17.7881 181.931C17.9285 182.073 17.9987 182.246 17.9987 182.45V185.689C17.9987 187.38 17.6275 188.856 16.8851 190.119C16.1427 191.362 15.0893 192.319 13.7248 192.992C12.3603 193.664 10.7651 194 8.93918 194Z" fill="white"/>
<path d="M25.1071 193.694C24.9064 193.694 24.7359 193.623 24.5954 193.481C24.455 193.338 24.3847 193.165 24.3847 192.961V173.069C24.3847 172.845 24.4449 172.662 24.5653 172.519C24.7058 172.377 24.8864 172.306 25.1071 172.306H32.9025C35.3706 172.306 37.2969 172.886 38.6814 174.047C40.086 175.208 40.7883 176.858 40.7883 178.997C40.7883 180.484 40.4371 181.737 39.7348 182.756C39.0326 183.754 38.0493 184.477 36.7852 184.925L41.1495 192.717C41.2097 192.839 41.2398 192.951 41.2398 193.053C41.2398 193.236 41.1695 193.389 41.0291 193.511C40.9087 193.633 40.7682 193.694 40.6077 193.694H37.8387C37.5176 193.694 37.2668 193.623 37.0862 193.481C36.9056 193.318 36.7451 193.114 36.6046 192.869L32.7521 185.628H28.6286V192.961C28.6286 193.165 28.5584 193.338 28.4179 193.481C28.2775 193.623 28.0969 193.694 27.8761 193.694H25.1071ZM32.8123 182.144C34.0162 182.144 34.9191 181.88 35.5211 181.35C36.1231 180.8 36.424 180.006 36.424 178.967C36.424 177.928 36.1231 177.133 35.5211 176.583C34.9191 176.013 34.0162 175.728 32.8123 175.728H28.6286V182.144H32.8123Z" fill="white"/>
<path d="M55.2919 194C52.5429 194 50.4059 193.297 48.881 191.892C47.356 190.486 46.5534 188.398 46.4731 185.628C46.453 185.037 46.443 184.171 46.443 183.031C46.443 181.869 46.453 180.994 46.4731 180.403C46.5534 177.694 47.376 175.616 48.9411 174.169C50.5063 172.723 52.6232 172 55.2919 172C57.9405 172 60.0474 172.723 61.6125 174.169C63.1977 175.616 64.0304 177.694 64.1107 180.403C64.1508 181.584 64.1709 182.46 64.1709 183.031C64.1709 183.581 64.1508 184.446 64.1107 185.628C64.0304 188.398 63.2177 190.486 61.6727 191.892C60.1477 193.297 58.0208 194 55.2919 194ZM55.2919 190.456C56.6363 190.456 57.6997 190.048 58.4823 189.233C59.2648 188.419 59.6862 187.166 59.7464 185.475C59.7865 184.253 59.8066 183.428 59.8066 183C59.8066 182.531 59.7865 181.706 59.7464 180.525C59.6862 178.855 59.2548 177.612 58.4522 176.797C57.6496 175.962 56.5961 175.544 55.2919 175.544C53.9676 175.544 52.9041 175.962 52.1015 176.797C51.2988 177.612 50.8775 178.855 50.8373 180.525C50.8173 181.116 50.8072 181.941 50.8072 183C50.8072 184.039 50.8173 184.864 50.8373 185.475C50.8775 187.145 51.2888 188.398 52.0714 189.233C52.874 190.048 53.9475 190.456 55.2919 190.456Z" fill="white"/>
<path d="M79.0789 194C76.35 194 74.2331 193.297 72.7282 191.892C71.2232 190.486 70.4708 188.357 70.4708 185.506V173.069C70.4708 172.845 70.531 172.662 70.6514 172.519C70.7918 172.377 70.9724 172.306 71.1932 172.306H73.9622C74.1829 172.306 74.3635 172.377 74.504 172.519C74.6444 172.662 74.7146 172.845 74.7146 173.069V185.506C74.7146 187.115 75.0859 188.327 75.8283 189.142C76.5908 189.956 77.6643 190.364 79.0488 190.364C80.4333 190.364 81.4968 189.956 82.2392 189.142C83.0017 188.327 83.3829 187.115 83.3829 185.506V173.069C83.3829 172.845 83.4532 172.662 83.5936 172.519C83.7341 172.377 83.9147 172.306 84.1354 172.306H86.9044C87.1252 172.306 87.2957 172.377 87.4161 172.519C87.5566 172.662 87.6268 172.845 87.6268 173.069V185.506C87.6268 188.357 86.8743 190.486 85.3694 191.892C83.8846 193.297 81.7877 194 79.0789 194Z" fill="white"/>
<path d="M95.4182 193.694C95.2176 193.694 95.047 193.623 94.9066 193.481C94.7661 193.338 94.6959 193.165 94.6959 192.961V173.069C94.6959 172.845 94.7561 172.662 94.8765 172.519C95.0169 172.377 95.1975 172.306 95.4182 172.306H103.485C105.912 172.306 107.819 172.886 109.203 174.047C110.588 175.208 111.28 176.899 111.28 179.119C111.28 181.319 110.588 182.99 109.203 184.131C107.819 185.251 105.912 185.811 103.485 185.811H99.0601V192.961C99.0601 193.185 98.9899 193.369 98.8494 193.511C98.709 193.633 98.5284 193.694 98.3077 193.694H95.4182ZM103.334 182.389C104.498 182.389 105.381 182.114 105.983 181.564C106.605 180.994 106.916 180.169 106.916 179.089C106.916 178.03 106.615 177.205 106.013 176.614C105.431 176.023 104.538 175.728 103.334 175.728H98.9999V182.389H103.334Z" fill="white"/>
<path d="M133.981 194C131.212 194 129.065 193.287 127.54 191.861C126.035 190.415 125.233 188.368 125.132 185.719C125.112 185.169 125.102 184.273 125.102 183.031C125.102 181.768 125.112 180.851 125.132 180.281C125.233 177.673 126.045 175.646 127.57 174.2C129.095 172.733 131.232 172 133.981 172C135.767 172 137.322 172.316 138.646 172.947C139.971 173.558 140.994 174.404 141.716 175.483C142.459 176.563 142.85 177.775 142.89 179.119V179.181C142.89 179.344 142.82 179.486 142.68 179.608C142.559 179.71 142.419 179.761 142.258 179.761H139.339C139.098 179.761 138.917 179.71 138.797 179.608C138.676 179.486 138.576 179.282 138.496 178.997C138.195 177.734 137.673 176.848 136.931 176.339C136.188 175.809 135.205 175.544 133.981 175.544C131.112 175.544 129.617 177.174 129.496 180.433C129.476 180.983 129.466 181.829 129.466 182.969C129.466 184.11 129.476 184.976 129.496 185.567C129.617 188.826 131.112 190.456 133.981 190.456C135.185 190.456 136.158 190.201 136.901 189.692C137.663 189.162 138.195 188.266 138.496 187.003C138.576 186.718 138.676 186.524 138.797 186.422C138.917 186.3 139.098 186.239 139.339 186.239H142.258C142.439 186.239 142.589 186.3 142.71 186.422C142.85 186.544 142.91 186.697 142.89 186.881C142.85 188.225 142.459 189.437 141.716 190.517C140.994 191.596 139.971 192.452 138.646 193.083C137.322 193.694 135.767 194 133.981 194Z" fill="white"/>
<path d="M154.719 193.694C154.519 193.694 154.348 193.623 154.208 193.481C154.067 193.338 153.997 193.165 153.997 192.961V186.086L146.864 173.283C146.803 173.1 146.773 172.988 146.773 172.947C146.773 172.764 146.834 172.611 146.954 172.489C147.094 172.367 147.245 172.306 147.405 172.306H150.114C150.496 172.306 150.807 172.499 151.047 172.886L156.104 181.747L161.19 172.886C161.271 172.744 161.381 172.611 161.521 172.489C161.682 172.367 161.873 172.306 162.093 172.306H164.802C164.983 172.306 165.133 172.367 165.254 172.489C165.374 172.611 165.434 172.764 165.434 172.947C165.434 173.069 165.404 173.181 165.344 173.283L158.241 186.086V192.961C158.241 193.185 158.171 193.369 158.03 193.511C157.89 193.633 157.709 193.694 157.488 193.694H154.719Z" fill="white"/>
<path d="M178.22 194C175.451 194 173.304 193.287 171.779 191.861C170.274 190.415 169.471 188.368 169.371 185.719C169.351 185.169 169.341 184.273 169.341 183.031C169.341 181.768 169.351 180.851 169.371 180.281C169.471 177.673 170.284 175.646 171.809 174.2C173.334 172.733 175.471 172 178.22 172C180.005 172 181.561 172.316 182.885 172.947C184.209 173.558 185.233 174.404 185.955 175.483C186.697 176.563 187.089 177.775 187.129 179.119V179.181C187.129 179.344 187.059 179.486 186.918 179.608C186.798 179.71 186.657 179.761 186.497 179.761H183.577C183.336 179.761 183.156 179.71 183.035 179.608C182.915 179.486 182.815 179.282 182.734 178.997C182.433 177.734 181.912 176.848 181.169 176.339C180.427 175.809 179.444 175.544 178.22 175.544C175.35 175.544 173.855 177.174 173.735 180.433C173.715 180.983 173.705 181.829 173.705 182.969C173.705 184.11 173.715 184.976 173.735 185.567C173.855 188.826 175.35 190.456 178.22 190.456C179.424 190.456 180.397 190.201 181.139 189.692C181.902 189.162 182.433 188.266 182.734 187.003C182.815 186.718 182.915 186.524 183.035 186.422C183.156 186.3 183.336 186.239 183.577 186.239H186.497C186.677 186.239 186.828 186.3 186.948 186.422C187.089 186.544 187.149 186.697 187.129 186.881C187.089 188.225 186.697 189.437 185.955 190.517C185.233 191.596 184.209 192.452 182.885 193.083C181.561 193.694 180.005 194 178.22 194Z" fill="white"/>
<path d="M193.978 193.694C193.778 193.694 193.607 193.623 193.467 193.481C193.326 193.338 193.256 193.165 193.256 192.961V173.039C193.256 172.815 193.326 172.642 193.467 172.519C193.607 172.377 193.778 172.306 193.978 172.306H196.807C197.028 172.306 197.199 172.377 197.319 172.519C197.46 172.642 197.53 172.815 197.53 173.039V190.028H207.071C207.292 190.028 207.472 190.099 207.613 190.242C207.753 190.384 207.823 190.557 207.823 190.761V192.961C207.823 193.165 207.753 193.338 207.613 193.481C207.472 193.623 207.292 193.694 207.071 193.694H193.978Z" fill="white"/>
<path d="M214.025 193.694C213.825 193.694 213.654 193.623 213.514 193.481C213.373 193.338 213.303 193.165 213.303 192.961V173.039C213.303 172.815 213.373 172.642 213.514 172.519C213.654 172.377 213.825 172.306 214.025 172.306H216.915C217.135 172.306 217.306 172.377 217.426 172.519C217.567 172.642 217.637 172.815 217.637 173.039V192.961C217.637 193.165 217.567 193.338 217.426 193.481C217.306 193.623 217.135 193.694 216.915 193.694H214.025Z" fill="white"/>
<path d="M225.607 193.694C225.407 193.694 225.236 193.623 225.096 193.481C224.955 193.338 224.885 193.165 224.885 192.961V173.069C224.885 172.845 224.945 172.662 225.065 172.519C225.206 172.377 225.386 172.306 225.607 172.306H227.955C228.336 172.306 228.627 172.479 228.828 172.825L237.436 186.392V173.069C237.436 172.845 237.496 172.662 237.616 172.519C237.757 172.377 237.937 172.306 238.158 172.306H240.747C240.967 172.306 241.148 172.377 241.288 172.519C241.429 172.662 241.499 172.845 241.499 173.069V192.931C241.499 193.155 241.429 193.338 241.288 193.481C241.148 193.623 240.977 193.694 240.777 193.694H238.399C237.998 193.694 237.697 193.521 237.496 193.175L228.918 179.914V192.961C228.918 193.165 228.848 193.338 228.707 193.481C228.587 193.623 228.416 193.694 228.196 193.694H225.607Z" fill="white"/>
<path d="M256.94 194C254.171 194 252.014 193.277 250.469 191.831C248.944 190.384 248.132 188.368 248.031 185.781C248.011 185.19 248.001 184.243 248.001 182.939C248.001 181.635 248.011 180.688 248.031 180.097C248.112 177.571 248.934 175.595 250.499 174.169C252.065 172.723 254.212 172 256.94 172C258.786 172 260.372 172.326 261.696 172.978C263.04 173.609 264.054 174.404 264.736 175.361C265.418 176.298 265.779 177.225 265.819 178.142C265.819 178.325 265.759 178.478 265.639 178.6C265.518 178.722 265.358 178.783 265.157 178.783H261.997C261.796 178.783 261.646 178.743 261.545 178.661C261.445 178.58 261.355 178.447 261.275 178.264C260.994 177.51 260.502 176.869 259.8 176.339C259.097 175.809 258.144 175.544 256.94 175.544C255.536 175.544 254.432 175.931 253.63 176.706C252.847 177.459 252.436 178.641 252.396 180.25C252.376 180.841 252.366 181.737 252.366 182.939C252.366 184.12 252.376 185.017 252.396 185.628C252.436 187.278 252.857 188.5 253.66 189.294C254.462 190.069 255.566 190.456 256.971 190.456C258.395 190.456 259.539 190.069 260.402 189.294C261.265 188.52 261.696 187.359 261.696 185.811V184.864H258.024C257.823 184.864 257.653 184.793 257.512 184.65C257.372 184.507 257.302 184.334 257.302 184.131V182.45C257.302 182.246 257.372 182.073 257.512 181.931C257.653 181.788 257.823 181.717 258.024 181.717H265.248C265.468 181.717 265.649 181.788 265.789 181.931C265.93 182.073 266 182.246 266 182.45V185.689C266 187.38 265.629 188.856 264.886 190.119C264.144 191.362 263.091 192.319 261.726 192.992C260.362 193.664 258.766 194 256.94 194Z" fill="white"/>
</g>
<defs>
<clipPath id="clip0">
<rect width="266" height="194" fill="white"/>
</clipPath>
</defs>
</svg>
