<svg width="16" height="16" viewBox="0 0 16 16" fill="none" xmlns="http://www.w3.org/2000/svg">
<path d="M6.00065 0.666748V2.00008H10.0007V0.666748H11.334V2.00008H14.0007C14.1775 2.00008 14.347 2.07032 14.4721 2.19534C14.5971 2.32037 14.6673 2.48994 14.6673 2.66675V13.3334C14.6673 13.5102 14.5971 13.6798 14.4721 13.8048C14.347 13.9298 14.1775 14.0001 14.0007 14.0001H2.00065C1.82384 14.0001 1.65427 13.9298 1.52925 13.8048C1.40422 13.6798 1.33398 13.5102 1.33398 13.3334V2.66675C1.33398 2.48994 1.40422 2.32037 1.52925 2.19534C1.65427 2.07032 1.82384 2.00008 2.00065 2.00008H4.66732V0.666748H6.00065ZM13.334 6.66675H2.66732V12.6667H13.334V6.66675ZM10.0247 7.42408L10.9673 8.36675L7.66732 11.6667L5.30998 9.30941L6.25398 8.36675L7.66798 9.78141L10.0253 7.42408H10.0247ZM4.66732 3.33341H2.66732V5.33342H13.334V3.33341H11.334V4.00008H10.0007V3.33341H6.00065V4.00008H4.66732V3.33341Z" fill="white"/>
</svg>
