<svg width="24" height="24" viewBox="0 0 24 24" fill="none" xmlns="http://www.w3.org/2000/svg">
<path d="M8 19.9992V21.9312C8.00015 22.0263 7.97319 22.1195 7.92227 22.1998C7.87134 22.2801 7.79858 22.3442 7.7125 22.3846C7.62642 22.425 7.53061 22.4401 7.43629 22.428C7.34197 22.4158 7.25307 22.3771 7.18 22.3162L3.06 18.8832C2.98098 18.8173 2.92421 18.7287 2.89744 18.6293C2.87067 18.53 2.8752 18.4248 2.91042 18.3281C2.94563 18.2314 3.00982 18.148 3.09421 18.0891C3.17861 18.0302 3.27911 17.9989 3.382 17.9992H18C18.5304 17.9992 19.0391 17.7885 19.4142 17.4134C19.7893 17.0384 20 16.5297 20 15.9992V7.99922H22V15.9992C22 17.0601 21.5786 18.0775 20.8284 18.8276C20.0783 19.5778 19.0609 19.9992 18 19.9992H8ZM16 3.99922V2.06722C15.9998 1.97213 16.0268 1.87896 16.0777 1.79865C16.1287 1.71835 16.2014 1.65422 16.2875 1.61381C16.3736 1.5734 16.4694 1.55837 16.5637 1.57048C16.658 1.5826 16.7469 1.62136 16.82 1.68222L20.94 5.11522C21.019 5.18106 21.0757 5.26964 21.1025 5.36889C21.1293 5.46815 21.1248 5.57325 21.0898 5.66988C21.0547 5.76651 20.9906 5.84998 20.9064 5.90891C20.8222 5.96784 20.7218 5.99938 20.619 5.99922H6C5.46957 5.99922 4.96086 6.20993 4.58579 6.58501C4.21071 6.96008 4 7.46879 4 7.99922V15.9992H2V7.99922C2 6.93835 2.42143 5.92094 3.17157 5.17079C3.92172 4.42065 4.93913 3.99922 6 3.99922H16Z" fill="#FCCC00"/>
</svg>
